<svg width="379" height="160" viewBox="0 0 379 160" fill="none" xmlns="http://www.w3.org/2000/svg">
<ellipse cx="69.462" cy="79.8145" rx="52.462" ry="42.8145" fill="black"/>
<path d="M115.123 100.141C115.404 102.385 117.224 103.721 118.038 105.715C118.861 107.729 119.359 110.906 120.467 112.682C122.612 116.119 120.013 120.675 118.254 123.494C113.885 130.495 104.714 138.35 95.2613 139.88C91.454 140.496 79.5182 143.1 79.1772 137.333C78.8267 131.403 83.5695 132.447 88.3527 131.23C89.025 131.059 94.0725 128.012 94.5057 127.626C95.9449 126.345 97.7454 124.021 99.3633 122.437C103.178 118.701 102.494 115.775 102.494 110.52" stroke="black" stroke-width="3" stroke-linecap="round"/>
<path d="M105.408 108.79C106.038 113.834 109.294 118.158 109.294 123.494C109.294 129.26 104.81 130.365 99.5792 132.816C94.7781 135.066 79.614 140.358 84.4667 138.198C89.2606 136.064 93.4612 137.088 85.7621 139.063C75.5641 141.679 91.1995 136.97 90.4038 136.66C89.5921 136.344 76.1433 140.011 84.7906 136.852C87.7095 135.786 82.6821 136.468 81.4442 136.468C80.8158 136.468 82.6751 136.237 83.2793 136.084C83.5007 136.027 88.029 134.687 88.029 134.93C88.029 135.501 84.235 135.127 82.5237 135.411C79.9307 135.84 86.8415 135.893 86.8415 135.171C86.8415 134.247 84.3925 135.147 86.1939 134.546C86.5965 134.411 90.1574 132.388 89.1624 132.191C87.0512 131.774 80.5769 133.008 82.7396 133.008C83.6344 133.008 88.8104 132.132 87.8131 132.576C87.0876 132.899 84.2917 133.786 86.7336 133.2C88.6566 132.74 91.6163 132.239 93.5882 132.239C95.6017 132.239 91.4063 133.685 91.6991 132.816C91.9593 132.044 97.2898 129.875 96.8806 130.173C95.6653 131.058 90.0376 134.508 88.3528 133.008C87.7509 132.472 99.7873 129.144 97.6362 130.221C95.5048 131.289 87.7496 133.636 93.966 131.951C95.6948 131.483 81.4933 137.582 89.5402 134.546C91.8796 133.663 99.1945 131.982 96.9885 133.104C94.3668 134.438 92.4334 135.733 89.5402 136.66C89.5363 136.661 95.1236 135.014 96.8266 134.882C100.142 134.626 92.2631 138.517 91.8071 138.678C91.3738 138.832 83.3965 140.403 86.0859 140.745C88.0802 140.998 89.9835 140.804 91.8071 140.12C93.1323 139.623 96.0451 140.339 98.6077 139.736C102.113 138.91 96.9724 136.721 101.522 136.468C102.87 136.393 100.531 136.468 100.173 136.468C98.7668 136.468 103.176 136.248 104.221 135.411C105.434 134.439 101.469 135.798 104.113 134.69C104.805 134.4 109.472 133.231 106.596 133.008C103.297 132.753 108.567 122.579 109.51 120.899C112.158 116.184 113.181 100.155 113.181 105.426C113.181 107.844 111.42 119.205 111.237 110.904C111.215 109.88 111.237 106.296 111.237 106.435C111.237 107.957 111.237 112.522 111.237 111C111.237 109.217 110.635 99.6097 111.993 105.522C112.572 108.044 113.764 111.57 113.127 114.124C112.653 116.021 110.998 110.678 110.482 108.79C109.721 106.005 109.906 105.858 108.863 109.174C108.154 111.429 108.027 113.67 106.596 115.709C105.472 117.31 106.38 103.885 106.38 107.637C106.38 109.367 106.157 114.644 103.951 115.517C102.001 116.289 102.607 111.216 102.71 110.712C103.57 106.499 105.242 103.336 105.408 109.847C105.642 118.998 106.398 102.874 108.107 108.79C108.614 110.544 108.323 116.031 108.323 114.22C108.323 111.986 108.11 109.652 108.539 107.445C110.166 99.0739 113.181 109.797 113.181 112.922C113.181 116.195 113.181 106.42 113.181 104.946C113.181 97.4058 114.152 107.883 114.152 110.328C114.152 110.452 114.01 106.209 113.612 104.946C112.984 102.948 112.209 101.378 112.209 99.2756C112.209 95.7682 114.152 106.147 114.152 109.655C114.152 115.287 112.314 104.324 112.209 102.735C112.012 99.7483 113.405 108.708 114.908 111.385C117.067 115.23 113.789 106.549 113.181 105.33C111.226 101.416 112.527 97.2276 114.368 103.6C115.018 105.85 119.908 111.036 117.606 109.943C115.867 109.118 114.173 100.525 114.368 100.525C116.036 100.525 116.892 106.114 117.822 107.252C119.292 109.052 118.322 116.897 118.038 119.169C117.88 120.437 107.019 127.659 105.408 127.819C103.552 128.002 101.027 129.268 99.5792 130.413C94.8351 134.168 100.259 128.192 103.249 126.954C107.585 125.159 112.775 121.416 116.095 118.304C117.038 117.42 122.702 108.309 121.924 108.309C118.097 108.309 111.137 118.778 108.539 121.091C107.154 122.324 103.319 125.889 101.522 126.089C98.2418 126.454 103.622 120.516 104.329 118.785C109.256 106.722 102.714 125.993 100.065 125.993C97.7997 125.993 101.166 118.681 101.522 117.968C102.041 116.928 101.904 123.52 101.09 125.176C98.3867 130.678 100.828 123.616 102.548 121.668C103.536 120.548 108.215 113.325 108.215 113.739C108.215 119.846 100.554 124.452 96.2869 128.251C92.6589 131.481 98.6576 122.915 99.5792 121.86C103.904 116.91 101.22 124.391 99.5253 126.089C98.1244 127.492 93.4405 133.641 94.3438 132.48C97.3752 128.581 102.218 127.103 105.84 123.878C109.737 120.409 102.473 130.621 101.63 131.663C100.385 133.202 95.4728 137.04 98.122 136.516C100.159 136.113 101.276 135.437 102.98 134.258C106.329 131.938 113.022 129.966 114.098 125.656C115.13 121.523 116.095 118.18 116.095 113.595C116.095 111.604 114.688 115.982 114.368 116.574C113.225 118.69 111 121.217 110.374 123.446C108.934 128.573 108.167 119.908 108.863 117.872C111.451 110.299 111.766 118.632 111.184 122.004C110.609 125.327 110.336 114.88 112.209 111.961C112.576 111.389 113.181 116.694 113.181 117.439C113.181 119.604 113.908 123.05 112.641 124.984C112.294 125.512 110.988 116.956 111.291 114.796C111.591 112.663 110.924 106.617 112.263 108.406C113.203 109.661 116.15 117.96 114.638 113.115C113.623 109.862 112.209 104.819 112.209 101.486C112.209 98.3448 116.74 106.224 117.013 107.925C117.367 110.136 121.216 115.847 119.441 114.268C117.07 112.157 115.124 106.063 115.124 103.168C115.124 101.333 117.638 113.349 118.524 113.98C121.861 116.357 117.619 122.554 115.07 123.878C110.535 126.233 104.933 129.624 100.119 131.182C97.9876 131.872 95.6967 136.151 99.0395 134.258C102.307 132.406 105.62 132.033 109.186 130.798C115.193 128.718 116.095 125.702 116.095 120.467C116.095 115.69 117.067 110.771 117.067 105.715C117.067 104.802 116.095 99.1983 116.095 101.438C116.095 104.604 117.234 107.084 117.984 110.087C118.151 110.758 118.981 116.097 118.848 116.334C117.85 118.11 116.616 112.861 115.124 111.385C113.672 109.949 113.188 108.424 112.695 106.58C112.115 104.413 111.547 100.354 112.263 98.1224C113.23 95.1105 114.746 104.033 116.635 106.676C117.993 108.575 120.36 115.049 119.387 112.971C117.693 109.35 118.325 104.902 116.581 101.486C114.028 96.4853 118.47 102.426 119.441 104.033C120.622 105.985 121.274 109.576 121.978 111.769C122.855 114.501 120.466 108.501 119.495 107.445C118.336 106.183 117.067 102.178 117.067 100.573C117.067 98.9214 118.695 103.374 119.441 104.513C120.345 105.892 120.439 108.703 120.899 110.135C121.626 112.402 121.924 114.16 121.924 116.574C121.924 119.127 119.463 119.096 117.552 120.419C113.575 123.172 104.101 123.298 102.602 128.636C102.296 129.724 102.494 131.024 102.494 132.143C102.494 133.043 102.626 131.358 103.519 130.894C105.25 129.995 109.473 127.245 110.266 125.656C111.075 124.035 112.554 124.485 110.806 126.089C108.844 127.888 106.378 129.453 104.005 130.798C102.639 131.572 100.288 136.234 98.6077 134.738" stroke="black" stroke-width="3" stroke-linecap="round"/>
<path d="M96.6647 138.198C104.445 137.428 106.659 130.165 111.237 126.089" stroke="black" stroke-width="3" stroke-linecap="round"/>
<line x1="34" y1="69.5" x2="61" y2="69.5" stroke="white" stroke-width="3"/>
<line x1="79" y1="69.5" x2="106" y2="69.5" stroke="white" stroke-width="3"/>
<path d="M87 25.8867C87.3137 23.0632 90.2294 23.3032 92 21.8867C96.0628 18.6365 94.67 25.2105 95.0556 27.3311C96.227 33.7738 97.5924 31.0905 102 28.8867" stroke="black" stroke-width="3" stroke-linecap="round"/>
<path d="M105 15.5794C105.128 14.5588 107.934 12.773 109 13.0239C110.89 13.4686 110 22.2025 110 23.9683C110 29.5161 114.306 24.8109 118 23.5794" stroke="black" stroke-width="3" stroke-linecap="round"/>
<path d="M122 10.1514C126.377 10.1514 130 5.75233 130 14.1514C130 15.4543 129.308 19.5369 130.111 20.5403C130.186 20.6344 139.06 17.3395 140 17.1514" stroke="black" stroke-width="3" stroke-linecap="round"/>
<path d="M181.728 56.104C181.899 56.104 182.069 56.1893 182.24 56.36C182.411 56.4453 182.624 56.5307 182.88 56.616L193.248 59.944C194.187 60.3707 195.211 60.7973 196.32 61.224C197.515 61.5653 198.624 62.0347 199.648 62.632C200.757 63.144 201.781 63.784 202.72 64.552C203.659 65.32 204.512 66.216 205.28 67.24C205.109 69.3733 204.597 71.1653 203.744 72.616C202.976 73.9813 202.037 75.176 200.928 76.2C199.904 77.224 198.795 78.248 197.6 79.272C196.491 80.2107 195.595 81.2347 194.912 82.344L191.328 83.88C190.987 84.136 190.176 84.392 188.896 84.648C187.701 84.8187 186.464 85.032 185.184 85.288C183.989 85.4587 182.88 85.7147 181.856 86.056C180.832 86.3973 180.277 86.7813 180.192 87.208L174.944 85.16C171.616 84.2213 169.397 82.8133 168.288 80.936C167.179 79.0587 166.624 76.3707 166.624 72.872C166.624 70.2267 166.667 67.9653 166.752 66.088C166.923 64.1253 167.477 62.0347 168.416 59.816L160.864 61.096L157.024 58.664C156.683 58.3227 156.427 58.024 156.256 57.768C156.085 57.512 156 57.0853 156 56.488C156 55.6347 156.043 54.952 156.128 54.44C156.213 53.8427 156.768 53.288 157.792 52.776L158.688 51.624L159.84 52.392C160.096 52.5627 160.523 52.648 161.12 52.648C162.144 52.648 163.296 52.4347 164.576 52.008C165.856 51.496 166.923 51.24 167.776 51.24L177.376 51.88L181.728 51.112L184.032 49.32C185.568 49.2347 187.232 49.064 189.024 48.808C190.901 48.4667 192.736 48.1253 194.528 47.784C196.405 47.4427 198.24 47.144 200.032 46.888C201.909 46.632 203.701 46.504 205.408 46.504C206.432 46.504 207.157 46.9307 207.584 47.784C208.096 48.6373 208.352 49.3627 208.352 49.96C208.352 50.6427 208.267 51.368 208.096 52.136C207.925 52.8187 207.669 53.7147 207.328 54.824C206.219 55.4213 204.555 55.7627 202.336 55.848C200.203 55.9333 197.813 55.976 195.168 55.976C193.717 55.976 192.267 55.976 190.816 55.976C189.365 55.8907 187.957 55.848 186.592 55.848C185.568 55.848 184.629 55.8907 183.776 55.976C183.008 55.976 182.325 56.0187 181.728 56.104ZM179.936 77.48C180.875 77.3093 181.557 77.1813 181.984 77.096C182.496 76.9253 182.88 76.712 183.136 76.456C183.392 76.2 183.648 75.816 183.904 75.304C184.245 74.7067 184.629 73.8533 185.056 72.744L182.496 69.288L177.76 67.112H176.224L173.664 69.288V74.792C174.517 75.304 175.243 75.944 175.84 76.712C176.437 77.3947 177.291 77.736 178.4 77.736C178.571 77.736 178.784 77.736 179.04 77.736C179.296 77.736 179.595 77.6507 179.936 77.48ZM180.448 36.52L190.56 35.24C190.987 36.008 191.328 36.6053 191.584 37.032C191.925 37.3733 192.139 37.7573 192.224 38.184C192.309 38.5253 192.352 38.952 192.352 39.464C192.352 39.976 192.352 40.744 192.352 41.768L190.432 43.432C188.64 43.7733 186.891 44.328 185.184 45.096C183.477 45.864 181.728 46.248 179.936 46.248C178.997 46.248 178.187 46.0773 177.504 45.736L165.6 45.608C165.259 45.608 164.917 45.48 164.576 45.224C164.235 44.968 164.064 44.456 164.064 43.688C164.064 42.8347 164.32 41.8533 164.832 40.744L167.136 37.032L172.896 36.52H180.448ZM200.672 94.376C200.672 95.5707 200.672 96.8933 200.672 98.344C200.757 99.7093 200.843 101.032 200.928 102.312C201.013 103.592 201.099 104.701 201.184 105.64C201.355 106.664 201.525 107.261 201.696 107.432L201.184 111.272C201.611 111.272 201.824 111.315 201.824 111.4C201.824 111.571 201.483 111.784 200.8 112.04C200.117 112.296 199.264 112.595 198.24 112.936C197.301 113.277 196.277 113.576 195.168 113.832C194.059 114.088 192.992 114.216 191.968 114.216C190.773 114.216 189.963 114.003 189.536 113.576C189.365 111.699 189.195 110.461 189.024 109.864C188.939 109.352 188.896 108.755 188.896 108.072C188.896 107.645 188.939 107.133 189.024 106.536C189.109 106.024 189.152 105.299 189.152 104.36C189.237 103.421 189.28 102.227 189.28 100.776C189.365 99.3253 189.493 97.5333 189.664 95.4L189.408 94.632L181.856 94.76C181.856 95.3573 181.813 96.168 181.728 97.192C181.728 98.216 181.685 99.2827 181.6 100.392C181.515 101.501 181.429 102.611 181.344 103.72C181.344 104.829 181.344 105.768 181.344 106.536C181.344 107.987 181.472 108.84 181.728 109.096L181.216 112.936C179.851 113.192 178.571 113.32 177.376 113.32C175.499 113.32 173.408 112.765 171.104 111.656C171.104 111.059 171.061 110.632 170.976 110.376C170.891 110.12 170.805 109.779 170.72 109.352C170.72 109.011 170.677 108.499 170.592 107.816C170.507 107.133 170.464 105.981 170.464 104.36C170.464 102.653 170.592 99.8373 170.848 95.912C170.421 96.0827 169.824 96.296 169.056 96.552C168.288 96.808 167.392 97.064 166.368 97.32C165.344 97.576 164.32 97.832 163.296 98.088C162.357 98.2587 161.547 98.344 160.864 98.344C160.352 98.344 160.011 98.3013 159.84 98.216L156.512 97.448L155.872 95.784L156.512 92.712C157.109 92.5413 158.176 92.328 159.712 92.072C161.333 91.816 163.04 91.6027 164.832 91.432C166.624 91.176 168.373 90.9627 170.08 90.792C171.872 90.536 173.28 90.3653 174.304 90.28L176.096 89H186.464L210.016 87.208C210.528 87.208 211.125 87.6773 211.808 88.616C212.576 89.5547 213.088 90.28 213.344 90.792V92.2L206.944 94.376H200.672ZM265.239 45.608H266.135C268.098 45.608 269.762 45.736 271.127 45.992C272.578 46.1627 274.284 46.504 276.247 47.016C276.674 47.9547 277.271 49.1493 278.039 50.6C278.807 51.9653 279.276 53.2453 279.447 54.44L268.567 70.44L271.767 71.72C272.62 72.8293 273.815 73.64 275.351 74.152C276.972 74.5787 278.551 75.2613 280.087 76.2L281.751 77.736L283.287 79.656L286.743 81.704L284.439 85.288L283.415 86.44H282.775L280.727 85.416C279.788 84.9893 278.892 84.648 278.039 84.392C277.271 84.136 276.674 83.4533 276.247 82.344L268.951 79.144C268.354 78.9733 267.628 78.8027 266.775 78.632C266.007 78.376 264.983 78.1627 263.703 77.992C263.191 78.0773 262.764 78.3333 262.423 78.76C262.082 79.1013 261.74 79.528 261.399 80.04C261.058 80.4667 260.674 80.9787 260.247 81.576C259.82 82.088 259.223 82.6 258.455 83.112C257.602 83.5387 256.962 84.0933 256.535 84.776C256.194 85.3733 255.852 86.056 255.511 86.824C255.255 87.5067 254.956 88.1893 254.615 88.872C254.359 89.4693 253.975 90.024 253.463 90.536L249.111 94.248C248.684 94.4187 248.386 94.504 248.215 94.504C248.044 94.4187 247.916 94.376 247.831 94.376C247.831 94.376 247.788 94.4187 247.703 94.504C247.703 94.504 247.618 94.632 247.447 94.888H246.679C245.74 94.376 244.844 94.0347 243.991 93.864C243.138 93.608 241.858 92.8827 240.151 91.688L235.671 87.336C236.183 86.824 236.61 86.3547 236.951 85.928C237.378 85.5013 237.719 85.0747 237.975 84.648C238.231 84.2213 238.53 83.7093 238.871 83.112C239.212 82.5147 239.724 81.6613 240.407 80.552L242.199 77.736L248.855 72.104L251.927 66.984V65.96L253.847 64.552L254.103 63.528L265.239 45.608ZM291.223 47.144C291.223 46.376 291.522 45.736 292.119 45.224C292.802 44.6267 293.527 44.2 294.295 43.944L301.207 48.296L299.799 64.424C299.372 65.448 299.159 66.088 299.159 66.344C299.159 66.5147 298.946 66.8133 298.519 67.24L299.287 71.848C299.372 72.1893 299.458 72.5733 299.543 73C299.628 73.4267 299.671 73.9387 299.671 74.536L299.927 77.736C299.927 78.248 299.927 78.9733 299.927 79.912C300.012 80.7653 300.098 81.704 300.183 82.728C300.268 83.6667 300.354 84.6053 300.439 85.544C300.61 86.3973 300.823 87.0373 301.079 87.464L298.391 91.688L292.503 89L291.991 88.104V65.704L292.503 62.504L292.119 60.584L291.223 47.144ZM289.175 96.552H296.727L297.623 99.88L298.135 102.824C297.964 103.08 297.879 103.293 297.879 103.464C297.879 103.891 298.135 104.232 298.647 104.488C299.244 104.744 299.543 104.957 299.543 105.128L299.031 106.664C298.86 108.029 298.732 109.139 298.647 109.992C298.562 110.845 298.519 111.571 298.519 112.168C298.519 112.851 298.476 113.576 298.391 114.344C298.306 115.112 298.22 116.093 298.135 117.288C298.135 117.885 297.922 118.781 297.495 119.976C297.068 121.256 296.855 122.408 296.855 123.432L296.087 124.072H294.039L289.175 123.048C288.663 122.963 288.279 122.664 288.023 122.152C287.767 121.64 287.554 121.043 287.383 120.36C287.298 119.763 287.212 119.123 287.127 118.44C287.127 117.757 287.127 117.16 287.127 116.648L286.871 110.376L285.719 109.48C285.378 109.053 285.207 108.584 285.207 108.072C285.207 107.645 285.25 107.261 285.335 106.92C285.42 106.579 285.463 106.195 285.463 105.768C285.463 105.341 285.036 105.128 284.183 105.128L274.071 106.024L269.207 107.048L267.927 106.664L267.415 104.104L268.951 102.44C269.463 101.928 270.06 101.373 270.743 100.776C271.511 100.179 272.663 99.88 274.199 99.88H274.839C275.778 99.7093 276.844 99.4107 278.039 98.984C279.319 98.5573 280.599 98.1307 281.879 97.704C283.159 97.2773 284.439 96.9787 285.719 96.808C286.999 96.552 288.151 96.4667 289.175 96.552Z" fill="black"/>
</svg>
